<svg width="87" height="64" viewBox="0 0 87 64" fill="none" xmlns="http://www.w3.org/2000/svg">
<g id="ejoy logo">
<path id="e" fill-rule="evenodd" clip-rule="evenodd" d="M5.88476 31.5516L14.4605 28.1977C13.0514 25.761 10.8283 24.6094 8.43158 25.5468C6.07232 26.4695 5.24636 28.7696 5.88476 31.5516ZM21.8078 36.6158C20.6784 38.815 18.7881 40.6527 15.8671 41.7951C9.83794 44.1531 3.60012 41.6278 1.01466 35.4334L0.983133 35.3579C-1.42891 29.5789 0.666582 23.2234 6.50854 20.9386C13.2118 18.317 18.4877 22.7123 20.2376 26.9048C20.9313 28.5668 20.2276 30.1161 18.7296 30.702L7.45763 35.1104C9.10715 37.4969 11.4722 38.1537 14.0187 37.1577C15.5915 36.5426 16.6973 35.539 17.4956 34.2162C17.7814 33.753 18.0928 33.4554 18.692 33.2211C19.9653 32.7231 21.3114 33.339 21.8474 34.6232C22.1627 35.3786 22.0621 36.077 21.8078 36.6158Z" fill="#1DA1F2"/>
<path id="joy" fill-rule="evenodd" clip-rule="evenodd" d="M25.7061 49.7777C29.9155 49.7777 32.5253 47.4307 32.5253 42.3022V22.4399C32.5253 20.6144 31.0941 19.1367 29.3262 19.1367C27.5582 19.1367 26.127 20.6144 26.127 22.4399V42.2587C26.127 43.8233 25.4956 44.4318 24.5696 44.4318H24.5275C23.1805 44.4318 22.0439 45.4749 22.0439 47.083C22.0439 48.9084 23.5593 49.7777 25.6219 49.7777H25.7061ZM49.6149 43.2149C42.6273 43.2149 37.4498 37.869 37.4498 31.1758V31.0889C37.4498 24.3957 42.6694 18.9629 49.6991 18.9629C56.6866 18.9629 61.8642 24.3088 61.8642 31.002V31.0889C61.8642 37.7821 56.6445 43.2149 49.6149 43.2149ZM49.699 37.5212C53.3611 37.5212 55.55 34.6093 55.55 31.1757V31.0888C55.55 27.6553 53.1507 24.6564 49.6148 24.6564C45.9526 24.6564 43.7638 27.5684 43.7638 31.0019V31.0888C43.7638 34.5223 46.1631 37.5212 49.699 37.5212ZM71.1676 49.7777C74.9981 49.7777 76.8923 47.9957 78.7865 43.2583L86.658 23.7437C86.7843 23.4395 86.9527 22.7006 86.9527 22.1791C86.9527 20.4406 85.5636 19.1367 83.9219 19.1367C82.2803 19.1367 81.3542 20.2667 80.8491 21.6575L76.1346 35.1743L71.2517 21.6141C70.7045 20.0494 69.7785 19.1367 68.1789 19.1367C66.411 19.1367 65.0219 20.4406 65.0219 22.3095C65.0219 22.7441 65.1903 23.396 65.3586 23.8307L73.0618 42.2587L72.8513 42.7803C72.262 43.9537 71.7148 44.171 70.5783 44.171C70.1152 44.171 69.7785 44.0841 69.2313 43.9103C68.9787 43.8233 68.684 43.7364 68.1789 43.7364C66.874 43.7364 65.6533 44.823 65.6533 46.4311C65.6533 48.0392 66.7477 48.8215 67.6738 49.1692C68.7261 49.5604 69.7364 49.7777 71.1676 49.7777Z" fill="#1DA1F2"/>
<path id="Combined Shape" fill-rule="evenodd" clip-rule="evenodd" d="M29.4076 16.5923C32.5972 16.5157 34.3939 14.3825 34.2861 11.931C33.8388 8.33246 29.0641 7.17409 30.9753 2.37012C27.1359 5.33044 24.3794 9.12037 24.4968 11.8169C24.5492 14.4325 26.2409 16.5923 29.4076 16.5923ZM32.317 12.9428C32.8083 12.9428 33.1618 12.5844 33.2065 12.1469C33.3236 11.8386 33.2065 10.4256 32.039 9.51957C32.2284 10.6963 31.3216 11.6738 31.4274 12.1469C31.4274 12.5865 31.8257 12.9428 32.317 12.9428Z" fill="#1DA1F2"/>
</g>
</svg>
